<mxfile host="app.diagrams.net" agent="Mozilla/5.0 (Windows NT 10.0; Win64; x64) AppleWebKit/537.36 (KHTML, like Gecko) Chrome/129.0.0.0 Safari/537.36 Edg/129.0.0.0" version="24.8.0">
  <diagram name="Page-1" id="e7e014a7-5840-1c2e-5031-d8a46d1fe8dd">
    <mxGraphModel dx="756" dy="1833" grid="1" gridSize="10" guides="1" tooltips="1" connect="1" arrows="1" fold="1" page="1" pageScale="1" pageWidth="1169" pageHeight="826" background="none" math="0" shadow="0">
      <root>
        <mxCell id="0" />
        <mxCell id="1" parent="0" />
        <mxCell id="2" value="Cliente" style="swimlane;whiteSpace=wrap" parent="1" vertex="1">
          <mxGeometry x="160" y="128" width="284.5" height="572" as="geometry" />
        </mxCell>
        <mxCell id="5" value="" style="ellipse;shape=startState;fillColor=#000000;strokeColor=#ff0000;" parent="2" vertex="1">
          <mxGeometry x="100" y="40" width="30" height="30" as="geometry" />
        </mxCell>
        <mxCell id="6" value="" style="edgeStyle=elbowEdgeStyle;elbow=horizontal;verticalAlign=bottom;endArrow=open;endSize=8;strokeColor=#FF0000;endFill=1;rounded=0" parent="2" source="5" edge="1">
          <mxGeometry x="100" y="40" as="geometry">
            <mxPoint x="115.5" y="110" as="targetPoint" />
          </mxGeometry>
        </mxCell>
        <mxCell id="CaTFyqgx49hb_BPLu5yh-41" value="" style="rounded=0;whiteSpace=wrap;html=1;" vertex="1" parent="2">
          <mxGeometry x="55" y="112" width="120" height="60" as="geometry" />
        </mxCell>
        <mxCell id="CaTFyqgx49hb_BPLu5yh-42" value="Envia una solicitud" style="text;strokeColor=none;align=center;fillColor=none;html=1;verticalAlign=middle;whiteSpace=wrap;rounded=0;fontSize=16;" vertex="1" parent="2">
          <mxGeometry x="65" y="127" width="100" height="30" as="geometry" />
        </mxCell>
        <mxCell id="3" value="API Gateway" style="swimlane;whiteSpace=wrap" parent="1" vertex="1">
          <mxGeometry x="447" y="128" width="275" height="572" as="geometry" />
        </mxCell>
        <mxCell id="CaTFyqgx49hb_BPLu5yh-44" value="" style="whiteSpace=wrap;html=1;rounded=0;" vertex="1" parent="3">
          <mxGeometry x="75.5" y="112" width="120" height="60" as="geometry" />
        </mxCell>
        <mxCell id="CaTFyqgx49hb_BPLu5yh-50" value="" style="edgeStyle=none;curved=1;rounded=0;orthogonalLoop=1;jettySize=auto;html=1;fontSize=12;startSize=8;endSize=8;" edge="1" parent="3" source="CaTFyqgx49hb_BPLu5yh-46" target="CaTFyqgx49hb_BPLu5yh-49">
          <mxGeometry relative="1" as="geometry" />
        </mxCell>
        <mxCell id="CaTFyqgx49hb_BPLu5yh-46" value="Transforma la solicitud" style="text;strokeColor=none;align=center;fillColor=none;html=1;verticalAlign=middle;whiteSpace=wrap;rounded=0;fontSize=16;" vertex="1" parent="3">
          <mxGeometry x="65.5" y="127" width="140" height="30" as="geometry" />
        </mxCell>
        <mxCell id="CaTFyqgx49hb_BPLu5yh-53" value="" style="edgeStyle=none;curved=1;rounded=0;orthogonalLoop=1;jettySize=auto;html=1;fontSize=12;startSize=8;endSize=8;" edge="1" parent="3" source="CaTFyqgx49hb_BPLu5yh-49" target="CaTFyqgx49hb_BPLu5yh-52">
          <mxGeometry relative="1" as="geometry" />
        </mxCell>
        <mxCell id="CaTFyqgx49hb_BPLu5yh-49" value="" style="whiteSpace=wrap;html=1;" vertex="1" parent="3">
          <mxGeometry x="75.5" y="202" width="120" height="60" as="geometry" />
        </mxCell>
        <mxCell id="CaTFyqgx49hb_BPLu5yh-51" value="Auntentifica o Autoriza la solicitud" style="text;strokeColor=none;align=center;fillColor=none;html=1;verticalAlign=middle;whiteSpace=wrap;rounded=0;fontSize=12;" vertex="1" parent="3">
          <mxGeometry x="77.12" y="217" width="116.75" height="30" as="geometry" />
        </mxCell>
        <mxCell id="CaTFyqgx49hb_BPLu5yh-52" value="" style="whiteSpace=wrap;html=1;" vertex="1" parent="3">
          <mxGeometry x="73.87" y="285" width="120" height="60" as="geometry" />
        </mxCell>
        <mxCell id="CaTFyqgx49hb_BPLu5yh-56" value="" style="edgeStyle=none;curved=1;rounded=0;orthogonalLoop=1;jettySize=auto;html=1;fontSize=12;startSize=8;endSize=8;" edge="1" parent="3" source="CaTFyqgx49hb_BPLu5yh-54" target="CaTFyqgx49hb_BPLu5yh-55">
          <mxGeometry relative="1" as="geometry" />
        </mxCell>
        <mxCell id="CaTFyqgx49hb_BPLu5yh-54" value="Enruta la solicitud" style="text;strokeColor=none;align=center;fillColor=none;html=1;verticalAlign=middle;whiteSpace=wrap;rounded=0;fontSize=16;" vertex="1" parent="3">
          <mxGeometry x="82" y="300" width="115" height="30" as="geometry" />
        </mxCell>
        <mxCell id="CaTFyqgx49hb_BPLu5yh-55" value="" style="whiteSpace=wrap;html=1;" vertex="1" parent="3">
          <mxGeometry x="314.5" y="285" width="120" height="60" as="geometry" />
        </mxCell>
        <mxCell id="CaTFyqgx49hb_BPLu5yh-65" value="" style="rounded=0;whiteSpace=wrap;html=1;" vertex="1" parent="3">
          <mxGeometry x="73.87000000000012" y="372" width="120" height="60" as="geometry" />
        </mxCell>
        <mxCell id="CaTFyqgx49hb_BPLu5yh-69" value="" style="edgeStyle=none;curved=1;rounded=0;orthogonalLoop=1;jettySize=auto;html=1;fontSize=12;startSize=8;endSize=8;" edge="1" parent="3" source="CaTFyqgx49hb_BPLu5yh-67" target="CaTFyqgx49hb_BPLu5yh-68">
          <mxGeometry relative="1" as="geometry" />
        </mxCell>
        <mxCell id="CaTFyqgx49hb_BPLu5yh-67" value="Procesa la respuesta" style="text;strokeColor=none;align=center;fillColor=none;html=1;verticalAlign=middle;whiteSpace=wrap;rounded=0;fontSize=16;" vertex="1" parent="3">
          <mxGeometry x="88.87" y="387" width="90" height="30" as="geometry" />
        </mxCell>
        <mxCell id="CaTFyqgx49hb_BPLu5yh-72" style="edgeStyle=none;curved=1;rounded=0;orthogonalLoop=1;jettySize=auto;html=1;entryX=0.5;entryY=0;entryDx=0;entryDy=0;fontSize=12;startSize=8;endSize=8;" edge="1" parent="3" source="CaTFyqgx49hb_BPLu5yh-68" target="CaTFyqgx49hb_BPLu5yh-71">
          <mxGeometry relative="1" as="geometry" />
        </mxCell>
        <mxCell id="CaTFyqgx49hb_BPLu5yh-68" value="" style="whiteSpace=wrap;html=1;" vertex="1" parent="3">
          <mxGeometry x="75.50000000000001" y="452" width="120" height="60" as="geometry" />
        </mxCell>
        <mxCell id="CaTFyqgx49hb_BPLu5yh-70" value="Envia respuesta al cliente" style="text;strokeColor=none;align=center;fillColor=none;html=1;verticalAlign=middle;whiteSpace=wrap;rounded=0;fontSize=16;" vertex="1" parent="3">
          <mxGeometry x="72.43" y="467" width="126.13" height="30" as="geometry" />
        </mxCell>
        <mxCell id="CaTFyqgx49hb_BPLu5yh-71" value="" style="ellipse;html=1;shape=endState;fillColor=#000000;strokeColor=#ff0000;" vertex="1" parent="3">
          <mxGeometry x="120.49000000000001" y="532" width="30" height="30" as="geometry" />
        </mxCell>
        <mxCell id="4" value="Service(n)" style="swimlane;whiteSpace=wrap" parent="1" vertex="1">
          <mxGeometry x="720" y="128" width="200" height="572" as="geometry" />
        </mxCell>
        <mxCell id="CaTFyqgx49hb_BPLu5yh-57" value="Procesa la solicitud" style="text;strokeColor=none;align=center;fillColor=none;html=1;verticalAlign=middle;whiteSpace=wrap;rounded=0;fontSize=16;" vertex="1" parent="4">
          <mxGeometry x="50" y="302" width="100" height="30" as="geometry" />
        </mxCell>
        <mxCell id="CaTFyqgx49hb_BPLu5yh-59" value="" style="rounded=0;whiteSpace=wrap;html=1;" vertex="1" parent="4">
          <mxGeometry x="40" y="372" width="120" height="60" as="geometry" />
        </mxCell>
        <mxCell id="CaTFyqgx49hb_BPLu5yh-61" value="Envia una respuesta" style="text;strokeColor=none;align=center;fillColor=none;html=1;verticalAlign=middle;whiteSpace=wrap;rounded=0;fontSize=16;" vertex="1" parent="4">
          <mxGeometry x="50" y="387" width="100" height="30" as="geometry" />
        </mxCell>
        <mxCell id="CaTFyqgx49hb_BPLu5yh-45" value="" style="edgeStyle=none;curved=1;rounded=0;orthogonalLoop=1;jettySize=auto;html=1;fontSize=12;startSize=8;endSize=8;" edge="1" parent="1" source="CaTFyqgx49hb_BPLu5yh-41" target="CaTFyqgx49hb_BPLu5yh-44">
          <mxGeometry relative="1" as="geometry" />
        </mxCell>
        <mxCell id="CaTFyqgx49hb_BPLu5yh-60" style="edgeStyle=none;curved=1;rounded=0;orthogonalLoop=1;jettySize=auto;html=1;entryX=0.518;entryY=-0.034;entryDx=0;entryDy=0;entryPerimeter=0;fontSize=12;startSize=8;endSize=8;" edge="1" parent="1" source="CaTFyqgx49hb_BPLu5yh-55" target="CaTFyqgx49hb_BPLu5yh-59">
          <mxGeometry relative="1" as="geometry" />
        </mxCell>
        <mxCell id="CaTFyqgx49hb_BPLu5yh-63" value="" style="edgeStyle=none;curved=1;rounded=0;orthogonalLoop=1;jettySize=auto;html=1;fontSize=12;startSize=8;endSize=8;" edge="1" parent="1" source="CaTFyqgx49hb_BPLu5yh-61" target="CaTFyqgx49hb_BPLu5yh-65">
          <mxGeometry relative="1" as="geometry">
            <mxPoint x="622.5000000000001" y="530" as="targetPoint" />
          </mxGeometry>
        </mxCell>
      </root>
    </mxGraphModel>
  </diagram>
</mxfile>
